{
 "asset": {
  "version": "2.0",
  "generator": "mesh rewrite M5 gate"
 },
 "buffers": [
  {
   "byteLength": 268,
   "uri": "data:application/octet-stream;base64,"
  }
 ],
 "bufferViews": [
  {
   "buffer": 0,
   "byteOffset": 0,
   "byteLength": 48
  },
  {
   "buffer": 0,
   "byteOffset": 48,
   "byteLength": 32
  },
  {
   "buffer": 0,
   "byteOffset": 80,
   "byteLength": 48
  },
  {
   "buffer": 0,
   "byteOffset": 128,
   "byteLength": 12
  },
  {
   "buffer": 0,
   "byteOffset": 140,
   "byteLength": 48
  },
  {
   "buffer": 0,
   "byteOffset": 188,
   "byteLength": 32
  },
  {
   "buffer": 0,
   "byteOffset": 220,
   "byteLength": 48
  }
 ],
 "accessors": [
  {
   "bufferView": 0,
   "componentType": 5126,
   "count": 4,
   "type": "VEC3",
   "min": [
    0,
    0,
    0
   ],
   "max": [
    1,
    1,
    0
   ]
  },
  {
   "bufferView": 1,
   "componentType": 5126,
   "count": 4,
   "type": "VEC2"
  },
  {
   "bufferView": 2,
   "componentType": 5126,
   "count": 4,
   "type": "VEC3"
  },
  {
   "bufferView": 3,
   "componentType": 5123,
   "count": 6,
   "type": "SCALAR"
  },
  {
   "bufferView": 4,
   "componentType": 5126,
   "count": 4,
   "type": "VEC3",
   "min": [
    1.2,
    0,
    0
   ],
   "max": [
    2.2,
    1,
    0
   ]
  },
  {
   "bufferView": 5,
   "componentType": 5126,
   "count": 4,
   "type": "VEC2"
  },
  {
   "bufferView": 6,
   "componentType": 5126,
   "count": 4,
   "type": "VEC3"
  }
 ],
 "materials": [
  {
   "name": "checker"
  },
  {
   "name": "tint"
  }
 ],
 "meshes": [
  {
   "primitives": [
    {
     "attributes": {
      "POSITION": 0,
      "TEXCOORD_0": 1,
      "NORMAL": 2
     },
     "indices": 3,
     "material": 0
    },
    {
     "attributes": {
      "POSITION": 4,
      "TEXCOORD_0": 5,
      "NORMAL": 6
     },
     "mode": 5,
     "material": 1
    }
   ]
  }
 ]
}
